<mxfile host="app.diagrams.net" agent="Mozilla/5.0 (Windows NT 10.0; Win64; x64) AppleWebKit/537.36 (KHTML, like Gecko) Chrome/138.0.0.0 Safari/537.36" version="27.1.6">
  <diagram name="Página-1" id="e45OjPIBaFHz5NlUAJ0t">
    <mxGraphModel grid="1" page="1" gridSize="10" guides="1" tooltips="1" connect="1" arrows="1" fold="1" pageScale="1" pageWidth="827" pageHeight="1169" math="0" shadow="0">
      <root>
        <mxCell id="0" />
        <mxCell id="1" parent="0" />
        <mxCell id="sgAW8uFoZmO3ORvUETgr-3" value="CU019 Eliminar Recurso" style="swimlane;childLayout=stackLayout;resizeParent=1;resizeParentMax=0;startSize=20;horizontal=0;horizontalStack=1;fontStyle=1" vertex="1" parent="1">
          <mxGeometry x="1738" y="345" width="660" height="480" as="geometry">
            <mxRectangle x="200" y="80" width="40" height="50" as="alternateBounds" />
          </mxGeometry>
        </mxCell>
        <mxCell id="sgAW8uFoZmO3ORvUETgr-4" style="edgeStyle=orthogonalEdgeStyle;rounded=0;orthogonalLoop=1;jettySize=auto;html=1;entryX=0;entryY=0.5;entryDx=0;entryDy=0;strokeColor=light-dark(#ff0000, #ededed);" edge="1" parent="sgAW8uFoZmO3ORvUETgr-3" source="mGtFkT2378oQVPJrBqGY-1" target="sgAW8uFoZmO3ORvUETgr-15">
          <mxGeometry relative="1" as="geometry">
            <Array as="points" />
            <mxPoint x="280" y="110" as="sourcePoint" />
          </mxGeometry>
        </mxCell>
        <mxCell id="sgAW8uFoZmO3ORvUETgr-6" value="Administrador" style="swimlane;startSize=20;" vertex="1" parent="sgAW8uFoZmO3ORvUETgr-3">
          <mxGeometry x="20" width="290" height="480" as="geometry" />
        </mxCell>
        <mxCell id="sgAW8uFoZmO3ORvUETgr-7" value="" style="ellipse;html=1;shape=startState;fillColor=#000000;strokeColor=#ff0000;fillStyle=auto;" vertex="1" parent="sgAW8uFoZmO3ORvUETgr-6">
          <mxGeometry x="20" y="25" width="30" height="30" as="geometry" />
        </mxCell>
        <mxCell id="sgAW8uFoZmO3ORvUETgr-9" value="" style="edgeStyle=orthogonalEdgeStyle;html=1;verticalAlign=bottom;endArrow=open;endSize=8;strokeColor=#ff0000;rounded=0;" edge="1" parent="sgAW8uFoZmO3ORvUETgr-6" source="sgAW8uFoZmO3ORvUETgr-7" target="mGtFkT2378oQVPJrBqGY-1">
          <mxGeometry relative="1" as="geometry">
            <mxPoint x="165" y="55" as="targetPoint" />
            <mxPoint x="340" y="320" as="sourcePoint" />
          </mxGeometry>
        </mxCell>
        <mxCell id="sgAW8uFoZmO3ORvUETgr-10" value="Pulsar botón &quot;Eliminar&quot;" style="rounded=1;whiteSpace=wrap;html=1;arcSize=40;fontColor=#000000;fillColor=#ffffc0;strokeColor=#ff0000;" vertex="1" parent="sgAW8uFoZmO3ORvUETgr-6">
          <mxGeometry x="85" y="190" width="120" height="50" as="geometry" />
        </mxCell>
        <mxCell id="sgAW8uFoZmO3ORvUETgr-11" value="Pulsar el botón &quot;Guardar&quot;" style="rounded=1;whiteSpace=wrap;html=1;arcSize=40;fontColor=#000000;fillColor=#ffffc0;strokeColor=#ff0000;" vertex="1" parent="sgAW8uFoZmO3ORvUETgr-6">
          <mxGeometry x="85" y="385" width="120" height="40" as="geometry" />
        </mxCell>
        <mxCell id="mGtFkT2378oQVPJrBqGY-1" value="Pulsa el apartado &quot;Recursos&quot;" style="rounded=1;whiteSpace=wrap;html=1;arcSize=40;fontColor=#000000;fillColor=#ffffc0;strokeColor=#ff0000;" vertex="1" parent="sgAW8uFoZmO3ORvUETgr-6">
          <mxGeometry x="85" y="80" width="120" height="50" as="geometry" />
        </mxCell>
        <mxCell id="sgAW8uFoZmO3ORvUETgr-13" value="" style="edgeStyle=orthogonalEdgeStyle;html=1;verticalAlign=bottom;endArrow=open;endSize=8;strokeColor=#ff0000;rounded=0;exitX=1;exitY=0.5;exitDx=0;exitDy=0;entryX=0;entryY=0.5;entryDx=0;entryDy=0;" edge="1" parent="sgAW8uFoZmO3ORvUETgr-3" source="sgAW8uFoZmO3ORvUETgr-11" target="sgAW8uFoZmO3ORvUETgr-20">
          <mxGeometry relative="1" as="geometry">
            <mxPoint x="470" y="300" as="targetPoint" />
            <mxPoint x="165" y="390" as="sourcePoint" />
            <Array as="points">
              <mxPoint x="225" y="370" />
            </Array>
          </mxGeometry>
        </mxCell>
        <mxCell id="sgAW8uFoZmO3ORvUETgr-21" style="edgeStyle=orthogonalEdgeStyle;rounded=0;orthogonalLoop=1;jettySize=auto;html=1;entryX=1;entryY=0.5;entryDx=0;entryDy=0;strokeColor=light-dark(#ff0000, #ededed);" edge="1" parent="sgAW8uFoZmO3ORvUETgr-3" source="sgAW8uFoZmO3ORvUETgr-17" target="sgAW8uFoZmO3ORvUETgr-10">
          <mxGeometry relative="1" as="geometry" />
        </mxCell>
        <mxCell id="vN1_2Sc0lnWRHrt2KN6W-9" value="" style="edgeStyle=orthogonalEdgeStyle;rounded=0;orthogonalLoop=1;jettySize=auto;html=1;entryX=0.5;entryY=0;entryDx=0;entryDy=0;strokeColor=light-dark(#ff0000, #ededed);" edge="1" parent="sgAW8uFoZmO3ORvUETgr-3" source="sgAW8uFoZmO3ORvUETgr-10" target="vN1_2Sc0lnWRHrt2KN6W-8">
          <mxGeometry relative="1" as="geometry">
            <mxPoint x="1923" y="730" as="targetPoint" />
            <Array as="points">
              <mxPoint x="165" y="255" />
              <mxPoint x="452" y="255" />
            </Array>
            <mxPoint x="1923" y="585" as="sourcePoint" />
          </mxGeometry>
        </mxCell>
        <mxCell id="sgAW8uFoZmO3ORvUETgr-12" style="edgeStyle=orthogonalEdgeStyle;rounded=0;orthogonalLoop=1;jettySize=auto;html=1;entryX=0.5;entryY=0;entryDx=0;entryDy=0;strokeColor=light-dark(#ff0000, #ededed);" edge="1" parent="sgAW8uFoZmO3ORvUETgr-3" source="vN1_2Sc0lnWRHrt2KN6W-8" target="sgAW8uFoZmO3ORvUETgr-11">
          <mxGeometry relative="1" as="geometry">
            <mxPoint x="434.9999999999998" y="270" as="targetPoint" />
            <Array as="points" />
          </mxGeometry>
        </mxCell>
        <mxCell id="sgAW8uFoZmO3ORvUETgr-14" value="Sistema" style="swimlane;startSize=20;" vertex="1" parent="sgAW8uFoZmO3ORvUETgr-3">
          <mxGeometry x="310" width="350" height="480" as="geometry" />
        </mxCell>
        <mxCell id="sgAW8uFoZmO3ORvUETgr-15" value="Mostrar apartado" style="rounded=1;whiteSpace=wrap;html=1;arcSize=40;fontColor=#000000;fillColor=#ffffc0;strokeColor=#ff0000;" vertex="1" parent="sgAW8uFoZmO3ORvUETgr-14">
          <mxGeometry x="150" y="80" width="120" height="50" as="geometry" />
        </mxCell>
        <mxCell id="sgAW8uFoZmO3ORvUETgr-16" value="" style="ellipse;html=1;shape=endState;fillColor=#000000;strokeColor=#ff0000;" vertex="1" parent="sgAW8uFoZmO3ORvUETgr-14">
          <mxGeometry x="300" y="420" width="30" height="30" as="geometry" />
        </mxCell>
        <mxCell id="sgAW8uFoZmO3ORvUETgr-17" value="Mostrar listado de recursos" style="rounded=1;whiteSpace=wrap;html=1;arcSize=40;fontColor=#000000;fillColor=#ffffc0;strokeColor=#ff0000;" vertex="1" parent="sgAW8uFoZmO3ORvUETgr-14">
          <mxGeometry x="30" y="190" width="120" height="50" as="geometry" />
        </mxCell>
        <mxCell id="sgAW8uFoZmO3ORvUETgr-18" style="edgeStyle=orthogonalEdgeStyle;rounded=0;orthogonalLoop=1;jettySize=auto;html=1;strokeColor=light-dark(#ff0000, #ededed);exitX=0.5;exitY=1;exitDx=0;exitDy=0;entryX=1;entryY=0.5;entryDx=0;entryDy=0;" edge="1" parent="sgAW8uFoZmO3ORvUETgr-14" source="sgAW8uFoZmO3ORvUETgr-15" target="sgAW8uFoZmO3ORvUETgr-17">
          <mxGeometry relative="1" as="geometry">
            <mxPoint x="-85" y="215" as="targetPoint" />
            <Array as="points">
              <mxPoint x="210" y="215" />
            </Array>
          </mxGeometry>
        </mxCell>
        <mxCell id="sgAW8uFoZmO3ORvUETgr-19" style="edgeStyle=orthogonalEdgeStyle;rounded=0;orthogonalLoop=1;jettySize=auto;html=1;entryX=0.5;entryY=0;entryDx=0;entryDy=0;strokeColor=light-dark(#ff0000, #ededed);" edge="1" parent="sgAW8uFoZmO3ORvUETgr-14" source="sgAW8uFoZmO3ORvUETgr-20" target="sgAW8uFoZmO3ORvUETgr-16">
          <mxGeometry relative="1" as="geometry" />
        </mxCell>
        <mxCell id="sgAW8uFoZmO3ORvUETgr-20" value="Mostrar mensaje de éxito" style="rounded=1;whiteSpace=wrap;html=1;arcSize=40;fontColor=#000000;fillColor=#ffffc0;strokeColor=#ff0000;" vertex="1" parent="sgAW8uFoZmO3ORvUETgr-14">
          <mxGeometry x="132" y="345" width="120" height="50" as="geometry" />
        </mxCell>
        <mxCell id="vN1_2Sc0lnWRHrt2KN6W-8" value="&amp;nbsp;Muestra el botón &quot;Cofirmar&quot;" style="rounded=1;whiteSpace=wrap;html=1;arcSize=40;fontColor=#000000;fillColor=#ffffc0;strokeColor=#ff0000;" vertex="1" parent="sgAW8uFoZmO3ORvUETgr-14">
          <mxGeometry x="82" y="285" width="120" height="40" as="geometry" />
        </mxCell>
      </root>
    </mxGraphModel>
  </diagram>
</mxfile>
